<?xml version="1.0" encoding="UTF-8" standalone="no"?><!DOCTYPE svg PUBLIC "-//W3C//DTD SVG 1.1//EN" "http://www.w3.org/Graphics/SVG/1.1/DTD/svg11.dtd"><svg width="100%" height="100%" viewBox="0 0 6400 4267" version="1.1" xmlns="http://www.w3.org/2000/svg" xmlns:xlink="http://www.w3.org/1999/xlink" xml:space="preserve" xmlns:serif="http://www.serif.com/" style="fill-rule:evenodd;clip-rule:evenodd;stroke-linejoin:round;stroke-miterlimit:2;"><rect id="Page-1" serif:id="Page 1" x="0" y="0" width="6400" height="4266.667" style="fill:none;"/><g id="Page-11" serif:id="Page 1"><g id="Layer1"><path d="M3199.69,987.5l-797.529,1256.171l229.167,653.55l212.192,-67.9l-135.804,-127.317l-152.775,-432.867l645.058,-1001.546l645.062,1001.546l-152.775,432.867l-135.804,127.317l212.192,67.9l229.167,-653.55l-797.529,-1256.171l-0.621,0Z" style="fill:#d93fe8;fill-rule:nonzero;"/><path d="M2970.833,2252.16l229.167,-360.725l229.167,360.725l-229.167,415.896l-229.167,-415.896Zm424.383,831.792l-127.317,-220.679l347.996,-611.113l-415.896,-636.575l-415.896,636.575l347.996,611.113l-127.317,220.679l-254.629,-76.392l254.629,271.604l195.217,-288.579l195.217,288.579l254.629,-271.604l-254.629,76.392Z" style="fill:#d93fe8;fill-rule:nonzero;"/></g></g></svg>