<?xml version="1.0" encoding="UTF-8" standalone="no"?>
<!DOCTYPE svg PUBLIC "-//W3C//DTD SVG 1.1//EN" "http://www.w3.org/Graphics/SVG/1.1/DTD/svg11.dtd">
<svg width="100%" height="100%" viewBox="0 0 4134 1772" version="1.1" xmlns="http://www.w3.org/2000/svg" xmlns:xlink="http://www.w3.org/1999/xlink" xml:space="preserve" xmlns:serif="http://www.serif.com/" style="fill-rule:evenodd;clip-rule:evenodd;stroke-linejoin:round;stroke-miterlimit:2;">
    <g transform="matrix(1,0,0,1,-918.4476,-352.315183)">
        <g transform="matrix(600,0,0,600,4920.345563,1238.141955)">
        </g>
        <text x="2125.546px" y="1238.142px" style="font-family:'Novecentosanswide-DemiBold', 'Novecento sans wide';font-weight:650;font-stretch:expanded;font-size:600px;fill:rgb(18,18,18);">RE<tspan x="2855.146px " y="1238.142px ">G</tspan>UL<tspan x="4092.346px " y="1238.142px ">A</tspan>R</text>
    </g>
    <g transform="matrix(1,0,0,1,171.201715,-781.296681)">
        <g transform="matrix(400,0,0,400,3774.296248,2033.937008)">
        </g>
        <text x="1035.896px" y="2033.937px" style="font-family:'Novecentosanswide-Normal', 'Novecento sans wide';font-stretch:expanded;font-size:400px;fill:rgb(18,18,18);">GAME S<tspan x="2534.696px " y="2033.937px ">T</tspan>UDIO</text>
    </g>
    <g transform="matrix(0.857931,0,0,0.911111,-188.93683,-611.393496)">
        <path d="M362.558,2158.748L362.558,1031.728L1412.386,1031.728L1412.386,1911.411L577.756,1911.411L577.756,2158.748L362.558,2158.748ZM1184.781,1222.445L590.163,1222.445L590.163,1720.694L1184.781,1720.694L1184.781,1222.445Z" style="fill:rgb(18,18,18);"/>
    </g>
</svg>
